<svg width="31" height="30" viewBox="0 0 31 30" fill="none" xmlns="http://www.w3.org/2000/svg">
<path d="M7.9491 4.5C7.15345 4.5 6.39039 4.81607 5.82778 5.37868C5.26517 5.94129 4.9491 6.70435 4.9491 7.5V22.5C4.9491 23.2956 5.26517 24.0587 5.82778 24.6213C6.39039 25.1839 7.15345 25.5 7.9491 25.5H14.2791L14.5971 24.2325C14.6166 24.1545 14.6376 24.0765 14.6616 24H7.9491C7.55127 24 7.16974 23.842 6.88844 23.5607C6.60713 23.2794 6.4491 22.8978 6.4491 22.5V7.5C6.4491 7.10217 6.60713 6.72064 6.88844 6.43934C7.16974 6.15804 7.55127 6 7.9491 6H22.9491C23.3469 6 23.7285 6.15804 24.0098 6.43934C24.2911 6.72064 24.4491 7.10217 24.4491 7.5V13.848C24.9291 13.6425 25.4376 13.5285 25.9491 13.5045V7.5C25.9491 6.70435 25.633 5.94129 25.0704 5.37868C24.5078 4.81607 23.7447 4.5 22.9491 4.5H7.9491ZM14.6991 21H16.8636L18.3636 19.5H14.6991C14.5002 19.5 14.3094 19.579 14.1688 19.7197C14.0281 19.8603 13.9491 20.0511 13.9491 20.25C13.9491 20.4489 14.0281 20.6397 14.1688 20.7803C14.3094 20.921 14.5002 21 14.6991 21ZM11.6991 10.875C11.6991 11.1734 11.5806 11.4595 11.3696 11.6705C11.1586 11.8815 10.8725 12 10.5741 12C10.2757 12 9.98958 11.8815 9.7786 11.6705C9.56762 11.4595 9.4491 11.1734 9.4491 10.875C9.4491 10.5766 9.56762 10.2905 9.7786 10.0795C9.98958 9.86853 10.2757 9.75 10.5741 9.75C10.8725 9.75 11.1586 9.86853 11.3696 10.0795C11.5806 10.2905 11.6991 10.5766 11.6991 10.875ZM10.5741 16.5C10.8725 16.5 11.1586 16.3815 11.3696 16.1705C11.5806 15.9595 11.6991 15.6734 11.6991 15.375C11.6991 15.0766 11.5806 14.7905 11.3696 14.5795C11.1586 14.3685 10.8725 14.25 10.5741 14.25C10.2757 14.25 9.98958 14.3685 9.7786 14.5795C9.56762 14.7905 9.4491 15.0766 9.4491 15.375C9.4491 15.6734 9.56762 15.9595 9.7786 16.1705C9.98958 16.3815 10.2757 16.5 10.5741 16.5ZM10.5741 21C10.8725 21 11.1586 20.8815 11.3696 20.6705C11.5806 20.4595 11.6991 20.1734 11.6991 19.875C11.6991 19.5766 11.5806 19.2905 11.3696 19.0795C11.1586 18.8685 10.8725 18.75 10.5741 18.75C10.2757 18.75 9.98958 18.8685 9.7786 19.0795C9.56762 19.2905 9.4491 19.5766 9.4491 19.875C9.4491 20.1734 9.56762 20.4595 9.7786 20.6705C9.98958 20.8815 10.2757 21 10.5741 21ZM14.6991 10.5C14.5002 10.5 14.3094 10.579 14.1688 10.7197C14.0281 10.8603 13.9491 11.0511 13.9491 11.25C13.9491 11.4489 14.0281 11.6397 14.1688 11.7803C14.3094 11.921 14.5002 12 14.6991 12H20.6991C20.898 12 21.0888 11.921 21.2294 11.7803C21.3701 11.6397 21.4491 11.4489 21.4491 11.25C21.4491 11.0511 21.3701 10.8603 21.2294 10.7197C21.0888 10.579 20.898 10.5 20.6991 10.5H14.6991ZM14.6991 15C14.5002 15 14.3094 15.079 14.1688 15.2197C14.0281 15.3603 13.9491 15.5511 13.9491 15.75C13.9491 15.9489 14.0281 16.1397 14.1688 16.2803C14.3094 16.421 14.5002 16.5 14.6991 16.5H20.6991C20.898 16.5 21.0888 16.421 21.2294 16.2803C21.3701 16.1397 21.4491 15.9489 21.4491 15.75C21.4491 15.5511 21.3701 15.3603 21.2294 15.2197C21.0888 15.079 20.898 15 20.6991 15H14.6991ZM16.9191 23.0655L24.1641 15.8205C24.4247 15.5601 24.7341 15.3536 25.0745 15.2127C25.4149 15.0718 25.7797 14.9994 26.1482 14.9996C26.5166 14.9997 26.8814 15.0724 27.2217 15.2135C27.562 15.3546 27.8712 15.5614 28.1316 15.822C28.392 16.0826 28.5985 16.392 28.7394 16.7324C28.8803 17.0728 28.9527 17.4376 28.9525 17.8061C28.9524 18.1745 28.8797 18.5393 28.7386 18.8796C28.5975 19.2199 28.3907 19.5291 28.1301 19.7895L20.8851 27.033C20.463 27.4552 19.9342 27.7549 19.3551 27.9L17.1081 28.461C16.8847 28.5167 16.6506 28.5136 16.4287 28.4521C16.2068 28.3906 16.0046 28.2728 15.8417 28.11C15.6788 27.9473 15.5608 27.7452 15.4991 27.5233C15.4374 27.3015 15.4341 27.0675 15.4896 26.844L16.0521 24.597C16.196 24.0174 16.4958 23.4883 16.9191 23.067V23.0655Z" fill="#4F4F4F"/>
</svg>
