<svg width="30" height="30" viewBox="0 0 30 30" fill="none" xmlns="http://www.w3.org/2000/svg">
<path d="M15.3564 13.2143C14.0304 13.2143 12.7586 12.6876 11.8209 11.7499C10.8832 10.8122 10.3564 9.54043 10.3564 8.21435C10.3564 6.88827 10.8832 5.6165 11.8209 4.67882C12.7586 3.74114 14.0304 3.21436 15.3564 3.21436C16.6825 3.21436 17.9543 3.74114 18.892 4.67882C19.8297 5.6165 20.3564 6.88827 20.3564 8.21435C20.3564 9.54043 19.8297 10.8122 18.892 11.7499C17.9543 12.6876 16.6825 13.2143 15.3564 13.2143Z" stroke="#343538" stroke-width="2" stroke-linecap="round"/>
<path d="M5.35693 25.7144V24.4644C5.35693 22.4752 6.14711 20.5676 7.55363 19.1611C8.96015 17.7545 10.8678 16.9644 12.8569 16.9644H17.8569C19.846 16.9644 21.7537 17.7545 23.1602 19.1611C24.5667 20.5676 25.3569 22.4752 25.3569 24.4644V25.7144" stroke="#343538" stroke-width="2" stroke-linecap="round"/>
</svg>
